<svg width="240" height="252" viewBox="0 0 240 252" fill="none" xmlns="http://www.w3.org/2000/svg">
<path fill-rule="evenodd" clip-rule="evenodd" d="M29.1382 36.0796C28.9913 35.9694 28.826 36.9425 28.826 36.9609C28.3486 40.2473 28.0916 43.5704 27.6877 46.8752C27.3572 49.5007 25.6865 61.4897 25.3193 63.6745C24.7501 67.1629 26.2006 67.4383 26.2373 67.475C32.2226 71.7529 60.4785 73.5889 64.1688 73.6439C69.9889 73.699 72.3573 74.0112 72.7613 69.0356C72.9816 66.4285 74.6156 47.8483 74.891 43.4603C75.35 35.9878 71.6229 38.5031 64.2239 38.0992C52.8224 37.4749 41.3658 37.5484 30.0194 36.7773" fill="#FF8524"/>
<path d="M29.1382 36.0796C28.9913 35.9694 28.826 36.9425 28.826 36.9609C28.3486 40.2473 28.0916 43.5704 27.6877 46.8752C27.3572 49.5007 25.6865 61.4897 25.3193 63.6745C24.7501 67.1629 26.2006 67.4383 26.2373 67.475C32.2226 71.7529 60.4785 73.5889 64.1688 73.6439C69.9889 73.699 72.3573 74.0111 72.7613 69.0356C72.9816 66.4285 74.6156 47.8483 74.891 43.4603C75.35 35.9878 71.6229 38.5031 64.2239 38.0992C52.8224 37.4749 41.3658 37.5484 30.0194 36.7773" stroke="#1D1D1D" stroke-width="2" stroke-miterlimit="10" stroke-linecap="round" stroke-linejoin="round"/>
<path d="M29.3217 43.6255C29.3217 43.6806 31.3964 44.1212 32.6815 44.2681C39.6032 45.0943 46.6718 45.8654 53.6486 45.9572C60.1664 46.0306 67.0696 45.1677 73.5323 46.3611" stroke="#1D1D1D" stroke-width="2" stroke-miterlimit="10" stroke-linecap="round" stroke-linejoin="round"/>
<path opacity="0.9116" fill-rule="evenodd" clip-rule="evenodd" d="M42.0268 38.2277C41.2924 41.4223 36.5739 45.1677 41.935 45.7919C45.9558 46.2509 46.8738 42.1016 47.5164 38.6499" fill="#F7F2EE"/>
<path d="M42.0268 38.2277C41.2924 41.4223 36.5739 45.1677 41.935 45.7919C45.9558 46.2509 46.8738 42.1016 47.5164 38.6499" stroke="#1D1D1D" stroke-width="2" stroke-miterlimit="10" stroke-linecap="round" stroke-linejoin="round"/>
<path opacity="0.9116" fill-rule="evenodd" clip-rule="evenodd" d="M55.3744 38.3929C54.8971 38.6316 54.2178 41.2571 53.9974 41.6977C52.8408 44.1396 50.8395 45.9205 54.3463 46.306C56.935 46.5998 57.853 42.9645 58.973 41.0735C59.3402 40.4676 59.7257 39.8617 60.0562 39.2375C60.2215 38.9254 60.6805 37.9523 60.607 38.3195" fill="#F7F2EE"/>
<path d="M55.3744 38.3929C54.8971 38.6316 54.2178 41.2571 53.9974 41.6977C52.8408 44.1396 50.8395 45.9205 54.3463 46.306C56.935 46.5998 57.853 42.9645 58.973 41.0735C59.3402 40.4676 59.7257 39.8617 60.0562 39.2375C60.2215 38.9254 60.6805 37.9523 60.607 38.3195" stroke="#1D1D1D" stroke-width="2" stroke-miterlimit="10" stroke-linecap="round" stroke-linejoin="round"/>
<path d="M29.7808 30.2044C29.7991 30.2044 30.2214 30.7185 30.2581 30.7552C31.6167 32.2607 32.8469 33.8397 33.9485 35.5288C34.0219 35.6389 34.2789 36.2999 34.4442 36.2264C37.9876 34.9045 71.1272 21.667 72.3574 21.8874" stroke="#1D1D1D" stroke-width="2" stroke-miterlimit="10" stroke-linecap="round" stroke-linejoin="round"/>
<path d="M29.5237 29.9106C29.5788 29.9474 64.0954 15.1309 67.7307 15.8102C69.383 16.1224 71.3476 19.1885 72.5409 20.3084" stroke="#1D1D1D" stroke-width="2" stroke-miterlimit="10" stroke-linecap="round" stroke-linejoin="round"/>
<path opacity="0.9116" fill-rule="evenodd" clip-rule="evenodd" d="M67.7307 38.1175C67.749 38.1542 67.6389 38.1175 67.6022 38.1542C66.3537 39.2375 65.6744 41.8079 64.8665 43.2216C64.7564 43.4235 63.4161 45.2779 63.6731 45.4615C68.0061 48.4909 71.1823 42.9462 72.4492 39.4945" fill="#F7F2EE"/>
<path d="M67.7307 38.1175C67.749 38.1542 67.6389 38.1175 67.6022 38.1542C66.3537 39.2375 65.6744 41.8079 64.8665 43.2216C64.7564 43.4235 63.4161 45.2779 63.6731 45.4615C68.0061 48.4909 71.1823 42.9462 72.4492 39.4945" stroke="#1D1D1D" stroke-width="2" stroke-miterlimit="10" stroke-linecap="round" stroke-linejoin="round"/>
<path d="M89.3769 20.5655C89.432 20.5838 88.6242 22.1444 88.5875 22.1995C87.3023 24.2558 85.4112 26.1285 83.4284 27.6707C83.0244 28.0012 82.1065 28.5337 82.1065 28.5337C82.1065 28.5337 82.6756 28.8458 82.9327 29.0294C85.3194 30.7185 85.4847 33.7112 85.7233 36.2081C85.7233 36.2815 85.705 36.612 85.8151 36.6487C85.9253 36.7038 86.2925 35.7124 86.3292 35.6389C86.8984 34.6108 87.541 33.5826 88.2019 32.6096C89.0648 31.3794 90.0746 30.2595 91.3598 29.3599C92.9939 28.2215 91.3598 28.093 90.4602 26.4223C89.5973 24.825 89.432 23.0073 89.432 21.2631" stroke="#1D1D1D" stroke-width="2" stroke-miterlimit="10" stroke-linecap="round" stroke-linejoin="round"/>
<path d="M16.1577 51.2816C16.4514 50.9878 15.4784 52.2547 15.3682 52.6586C15.1663 53.4113 12.2654 55.9634 12.5591 56.2938C12.8345 56.6243 14.6338 61.1776 14.7072 60.8471C14.8541 60.1127 17.3144 57.2118 18.0671 56.2938C18.0855 56.2755 17.8101 55.7798 17.7917 55.7798C17.039 55.2657 16.4881 52.0711 16.1577 51.2816Z" stroke="#1D1D1D" stroke-width="2" stroke-miterlimit="10" stroke-linecap="round" stroke-linejoin="round"/>
<path opacity="0.9116" fill-rule="evenodd" clip-rule="evenodd" d="M34.8297 27.7442C34.6277 28.35 36.7208 29.929 37.0329 30.2411C39.2544 32.5177 39.0892 33.9315 41.935 32.6463C42.8162 32.2423 43.9729 32.0404 44.744 31.4529C45.5335 30.847 40.8517 26.716 40.356 25.5777" fill="black"/>
<path d="M34.8297 27.7442C34.6277 28.35 36.7208 29.929 37.0329 30.2411C39.2544 32.5177 39.0892 33.9315 41.935 32.6463C42.8162 32.2423 43.9729 32.0404 44.744 31.4529C45.5335 30.847 40.8517 26.716 40.356 25.5777" stroke="#1D1D1D" stroke-width="2" stroke-miterlimit="10" stroke-linecap="round" stroke-linejoin="round"/>
<path opacity="0.9116" fill-rule="evenodd" clip-rule="evenodd" d="M45.5335 23.5214C45.4049 23.1542 48.3242 28.5337 50.1785 29.4517C50.5457 29.6353 54.7685 28.4786 55.0072 28.0563C55.3744 27.3953 51.5005 22.1077 51.0231 21.4284" fill="black"/>
<path d="M45.5335 23.5214C45.4049 23.1542 48.3242 28.5337 50.1785 29.4517C50.5457 29.6353 54.7685 28.4786 55.0072 28.0563C55.3744 27.3953 51.5005 22.1077 51.0231 21.4284" stroke="#1D1D1D" stroke-width="2" stroke-miterlimit="10" stroke-linecap="round" stroke-linejoin="round"/>
<path opacity="0.9116" fill-rule="evenodd" clip-rule="evenodd" d="M55.9987 19.5006C57.2288 20.6389 61.1028 25.5043 61.6352 25.3941C67.1248 24.3109 63.3059 20.1982 60.6804 17.9033" fill="black"/>
<path d="M55.9987 19.5006C57.2288 20.6389 61.1028 25.5043 61.6352 25.3941C67.1248 24.3109 63.3059 20.1982 60.6804 17.9033" stroke="#1D1D1D" stroke-width="2" stroke-miterlimit="10" stroke-linecap="round" stroke-linejoin="round"/>
<path fill-rule="evenodd" clip-rule="evenodd" d="M45.0194 51.8324C45.1296 51.6855 44.8909 52.1996 44.8726 52.3832C44.7257 53.2461 44.6155 54.1274 44.5054 54.9903C44.2116 57.4505 43.826 59.9107 43.5323 62.371C43.5323 62.4444 43.4588 62.7749 43.5323 62.83C44.6522 63.5827 55.7416 58.0931 56.5494 56.7528C56.733 56.4407 55.76 55.9817 55.6131 55.8899C53.924 54.9169 47.4062 52.3648 45.0194 51.8324Z" fill="#F7F2EE"/>
<path d="M45.0194 51.8324C45.1296 51.6855 44.8909 52.1996 44.8726 52.3832C44.7257 53.2461 44.6155 54.1274 44.5054 54.9903C44.2116 57.4505 43.826 59.9107 43.5323 62.371C43.5323 62.4444 43.4588 62.7749 43.5323 62.83C44.6522 63.5827 55.7416 58.0931 56.5494 56.7528C56.733 56.4407 55.76 55.9817 55.6131 55.8899C53.924 54.9169 47.4062 52.3648 45.0194 51.8324Z" stroke="#F7F2EE" stroke-width="2" stroke-miterlimit="10" stroke-linecap="round" stroke-linejoin="round"/>
<path d="M29.4869 30.0392C29.5053 30.0575 29.4686 30.2411 29.4686 30.2411C29.0463 32.8299 29.083 35.492 28.6975 38.0808" stroke="#1D1D1D" stroke-width="2" stroke-miterlimit="10" stroke-linecap="round" stroke-linejoin="round"/>
<path d="M10.0806 1.9118C9.23601 6.42833 12.908 7.25453 12.3388 8.85184C12.1736 9.31084 9.7317 10.8347 9.54811 11.2937C9.01567 12.6523 11.4943 14.2497 11.5494 15.2594C11.6412 16.7282 9.07077 17.2056 8.97898 18.9681C8.9239 20.1799 10.7599 20.3635 10.5396 21.5385C10.1907 23.3745 7.32657 23.7234 7.7672 26.1652C7.96916 27.2852 9.47469 28.1297 9.16257 29.3966C8.77702 30.9388 6.57383 31.2693 6.68399 33.1971C6.77579 34.8127 8.90554 35.694 8.29967 37.4749C7.73051 39.109 5.65582 39.6414 5.25191 41.5141C4.90307 43.1481 7.03281 44.2864 6.66561 45.5349C6.18825 47.1322 3.96672 47.6463 3.6546 49.5007C3.34249 51.3183 5.69256 51.6304 5.82108 53.1726C5.9496 54.5864 2.9569 55.3758 2.66314 56.9915C2.3143 58.8642 4.77455 59.415 4.70111 60.8838C4.64603 61.9854 2.02055 63.5827 1.43304 64.6843C1.28616 64.9597 1.17602 65.2351 1.08422 65.5289C0.57014 67.4199 2.57136 67.0711 2.68152 68.1543C2.8284 69.6048 1.04748 70.8349 1.34124 72.5056C1.39632 72.8545 1.54321 73.1849 1.72681 73.4787C5.49059 79.464 7.52854 73.2584 10.9068 74.2682C12.5775 74.7639 11.5126 77.6464 14.1197 77.4077C15.662 77.2608 17.8468 73.4053 19.4257 74.8557C20.6375 75.9756 20.0683 79.6109 22.6754 79.3539C24.5665 79.1703 24.4564 74.9658 26.4576 75.4616C28.4221 75.9389 27.3021 79.5375 30.3866 79.2437C32.4062 79.0601 32.4062 75.076 34.8848 76.1042C36.7208 76.8569 35.4907 79.9047 37.9509 80.0883C40.4662 80.2902 39.9705 76.2327 42.853 77.2425C44.7991 77.9218 44.3952 81.502 46.9289 81.4836C49.4258 81.4653 49.0954 77.4444 51.7025 77.7382C54.2178 78.032 54.2361 82.5118 56.5127 82.4383C58.5874 82.3832 58.1468 78.9316 60.2582 79.005C62.9204 79.0968 63.3427 83.4298 65.9498 83.0626C68.3549 82.7321 67.7674 79.2804 69.6768 78.8949C72.7429 78.2706 70.9987 83.7419 75.3684 83.4665C77.4063 83.338 76.4883 81.1531 77.6083 80.5656C80.2521 79.1703 80.3256 84.1091 82.3819 84.77C84.071 85.3025 85.8886 79.6843 87.3758 79.1886C88.3121 78.8765 89.0098 88.2401 95.8947 81.0981C98.4284 78.4726 90.5887 76.5448 92.7368 74.3232C94.1138 72.8912 97.4186 74.3783 97.6206 71.2388C97.7675 68.9622 93.5263 69.77 94.1505 67.1262C94.481 65.7308 96.8495 65.4187 97.1065 63.5276C97.2901 62.1874 94.5178 61.5448 95.4908 59.7088C96.2069 58.3869 98.4101 57.8177 98.7589 56.2204C99.1261 54.568 97.033 53.0258 97.4553 51.0613C97.8042 49.4272 100.503 48.6377 100.503 46.8936C100.503 45.59 98.5019 45.0759 98.8507 43.4235C99.1812 41.8629 100.944 41.2571 101.182 39.7332C101.384 38.4664 99.7136 37.273 100.338 35.9878C100.98 34.7026 102.982 34.6659 103.643 33.2154C104.377 31.6548 102.761 30.6083 102.229 29.268C100.999 26.1469 104.854 26.7711 104.983 24.4761C105.075 22.8604 101.843 22.6768 102.192 21.0245C102.633 18.9865 106.103 17.6462 103.532 15.4247C99.6402 12.0648 97.694 15.4063 95.7111 14.6536C94.1138 14.0477 94.5178 11.6242 92.5716 11.3304C90.3317 10.9999 89.5238 13.8641 87.3574 12.9828C85.8151 12.3586 86.3109 9.97179 84.2913 9.86163C82.0514 9.75147 81.574 12.7625 79.6829 12.4504C78.1774 12.2117 78.4712 9.64131 76.525 9.42099C73.7343 9.10888 72.6878 12.3035 70.8335 11.6793C68.8873 11.0183 70.1909 7.62172 67.5838 7.21781C64.6829 6.77717 65.2521 10.2655 63.3243 10.9265C61.5067 11.5507 60.4418 7.40141 58.4956 7.14437C56.6046 6.90569 56.3659 10.6878 53.9056 10.1554C53.2447 10.0085 52.4369 4.81266 50.7845 4.75758C48.1039 4.66578 48.3977 9.25576 45.4601 9.1456C45.1296 9.12724 45.2214 6.74045 45.1663 6.44669C44.9276 5.3451 43.7342 4.73922 42.7795 4.31694C40.3744 3.23371 40.2459 7.98892 38.52 7.84204C35.8762 7.60336 37.7489 3.32551 34.7563 3.36223C32.0757 3.39895 32.4613 6.96077 29.6155 7.18109C27.4123 7.34633 28.8444 3.10519 26.7697 2.66455C24.236 2.11375 23.8321 6.85061 21.7574 6.85061C19.591 6.86897 21.6473 3.30715 20.3254 2.66455C16.1944 0.663322 15.6987 5.60214 15.3315 3.38059C14.7807 0.0207252 10.2825 0.902 10.0806 1.9118Z" stroke="#1D1D1D" stroke-width="2" stroke-miterlimit="10" stroke-linecap="round" stroke-linejoin="round"/>
<path fill-rule="evenodd" clip-rule="evenodd" d="M73.2202 206.606C73.5324 206.239 72.0268 206.57 71.421 206.588C67.6205 206.717 63.8016 206.882 60.0011 207.084C54.5666 207.359 30.1479 207.8 30.4233 217.567C30.4784 219.33 30.6436 223.699 33.4711 224.342C40.9068 226.068 54.3463 224.324 67.1615 221.974C79.279 219.734 90.2766 217.824 94.1138 215.731C96.2986 214.538 97.6757 212.922 98.0796 211.013C98.3733 209.672 98.0612 208.149 96.4822 207.286C91.4333 204.513 81.7576 205.799 76.0293 206.533" fill="#00A54D"/>
<path d="M73.2202 206.606C73.5324 206.239 72.0268 206.57 71.421 206.588C67.6205 206.717 63.8016 206.882 60.0011 207.084C54.5666 207.359 30.1479 207.8 30.4233 217.567C30.4784 219.33 30.6436 223.699 33.4711 224.342C40.9068 226.068 54.3463 224.324 67.1615 221.974C79.279 219.734 90.2766 217.824 94.1138 215.731C96.2986 214.538 97.6757 212.922 98.0796 211.013C98.3733 209.672 98.0612 208.149 96.4822 207.286C91.4333 204.513 81.7576 205.799 76.0293 206.533" stroke="#1D1D1D" stroke-width="2" stroke-miterlimit="10" stroke-linecap="round" stroke-linejoin="round"/>
<path d="M79.7013 147.451C80.0685 149.893 79.2974 152.867 78.1223 155.162C77.8653 155.639 79.0587 155.566 79.481 155.804C80.4357 156.319 81.1334 157.512 81.7025 158.357C81.8127 158.522 82.8408 160.707 82.8776 160.707C82.8959 160.707 82.8959 159.862 82.9143 159.825C83.0061 157.934 83.3916 156.08 84.071 154.299C84.2729 153.748 85.4663 152.959 84.8972 152.72C82.6756 151.802 80.0869 151.986 79.94 148.791" stroke="#1D1D1D" stroke-width="2" stroke-miterlimit="10" stroke-linecap="round" stroke-linejoin="round"/>
<path fill-rule="evenodd" clip-rule="evenodd" d="M63.159 223.167C46.2679 226.251 43.0917 223.773 41.8615 222.359C31.4698 210.223 35.8579 177.084 41.0537 175.339C41.3108 175.248 41.5494 175.56 41.6963 175.725C44.3952 178.387 49.2606 181.361 52.8224 182.683C70.503 189.201 87.2472 189.421 89.6707 207.359C91.4333 220.358 90.6805 218.871 70.2093 222.176" fill="#F7F2EE"/>
<path d="M63.159 223.167C46.2679 226.251 43.0917 223.773 41.8615 222.359C31.4698 210.223 35.8579 177.084 41.0537 175.339C41.3108 175.248 41.5494 175.56 41.6963 175.725C44.3952 178.387 49.2606 181.361 52.8224 182.683C70.503 189.201 87.2472 189.421 89.6707 207.359C91.4333 220.358 90.6805 218.871 70.2093 222.176" stroke="#1D1D1D" stroke-width="2" stroke-miterlimit="10" stroke-linecap="round" stroke-linejoin="round"/>
<path d="M76.5618 191.202C76.6168 190.945 75.8274 191.698 75.7906 191.808C75.5152 192.396 75.35 193.038 75.2582 193.699C74.9828 195.719 75.2031 197.83 75.809 199.758C77.6267 205.615 82.5287 212.041 89.2485 211.6" stroke="#161616" stroke-width="2" stroke-miterlimit="10" stroke-linecap="round" stroke-linejoin="round"/>
<path fill-rule="evenodd" clip-rule="evenodd" d="M36.3169 190.743C36.3903 190.541 36.7391 190.725 36.9595 190.707C39.5666 190.395 42.192 190.119 44.8175 189.752C46.323 189.532 48.2324 188.852 49.7747 189.183C49.9216 189.22 50.1602 189.293 50.1052 189.495C49.4993 191.918 38.3915 191.992 37.5286 194.526C37.4185 194.819 37.7306 194.966 37.9693 195.021C40.301 195.572 43.0733 194.25 45.4601 194.25C45.607 194.25 45.9558 194.213 46.066 194.342C46.2679 194.562 44.23 195.315 44.1015 195.37C43.3487 195.664 38.2446 197.775 38.6118 198.858C38.9607 199.887 45.6253 197.996 45.7171 198.969C45.8456 200.474 36.2618 199.74 35.5825 202.328" fill="#1D1D1D"/>
<path d="M36.3169 190.743C36.3903 190.541 36.7391 190.725 36.9595 190.707C39.5666 190.395 42.192 190.119 44.8175 189.752C46.323 189.532 48.2324 188.852 49.7747 189.183C49.9216 189.22 50.1602 189.293 50.1052 189.495C49.4993 191.918 38.3915 191.992 37.5286 194.526C37.4185 194.819 37.7306 194.966 37.9693 195.021C40.301 195.572 43.0733 194.25 45.4601 194.25C45.607 194.25 45.9558 194.213 46.066 194.342C46.2679 194.562 44.23 195.315 44.1015 195.37C43.3487 195.664 38.2446 197.775 38.6118 198.858C38.9607 199.887 45.6253 197.996 45.7171 198.969C45.8456 200.474 36.2618 199.74 35.5825 202.328" stroke="#1D1D1D" stroke-width="2" stroke-miterlimit="10" stroke-linecap="round" stroke-linejoin="round"/>
<path d="M43.6425 155.713C43.312 155.492 45.5519 155.804 45.9375 155.841C54.6584 156.741 52.3634 148.203 54.3647 151.306C60.0562 160.082 70.705 161.349 75.2215 159.293C76.9657 158.485 75.4602 163.369 75.5153 165.076C75.7172 171.484 87.1004 175.413 80.399 182.022C72.6695 189.642 51.1884 183.197 46.1211 179.36C34.4993 170.566 31.3964 157.879 43.6425 155.713Z" stroke="#1D1D1D" stroke-width="2" stroke-miterlimit="10" stroke-linecap="round" stroke-linejoin="round"/>
<path fill-rule="evenodd" clip-rule="evenodd" d="M49.4809 160.431C49.7196 160.56 49.1321 160.798 49.0035 161.019C48.5996 161.698 47.7918 162.708 47.5898 163.387C47.1125 165.076 47.9203 167.518 49.6645 168.399C50.4907 168.822 55.7416 170.144 56.6229 169.574C57.2655 169.152 57.5776 168.087 57.9081 167.481C58.0366 167.243 59.0464 165.811 58.8995 165.554C57.192 162.506 53.3181 161.753 50.0684 160.798" fill="#1D1D1D"/>
<path d="M49.4809 160.431C49.7196 160.56 49.1321 160.798 49.0035 161.019C48.5996 161.698 47.7918 162.708 47.5898 163.387C47.1125 165.076 47.9203 167.518 49.6645 168.399C50.4907 168.822 55.7416 170.144 56.6229 169.574C57.2655 169.152 57.5776 168.087 57.9081 167.481C58.0366 167.243 59.0464 165.811 58.8995 165.554C57.192 162.506 53.3181 161.753 50.0684 160.798" stroke="#1D1D1D" stroke-width="2" stroke-miterlimit="10" stroke-linecap="round" stroke-linejoin="round"/>
<path fill-rule="evenodd" clip-rule="evenodd" d="M59.4503 166.71C59.4503 166.71 59.5238 166.747 59.6339 166.784C59.8726 166.839 61.1762 167.224 61.1762 167.316C61.1762 167.555 59.7074 169.813 60.2214 170.492C61.3781 171.998 67.8041 174.495 69.8237 173.595C72.8163 172.273 74.0097 168.271 70.4112 166.912C68.465 166.178 65.7845 166.747 63.7833 167.114" fill="#1D1D1D"/>
<path d="M59.4503 166.71C59.4503 166.71 59.5238 166.747 59.6339 166.784C59.8726 166.839 61.1762 167.224 61.1762 167.316C61.1762 167.555 59.7074 169.813 60.2214 170.492C61.3781 171.998 67.8041 174.495 69.8237 173.595C72.8163 172.273 74.0097 168.271 70.4112 166.912C68.465 166.178 65.7845 166.747 63.7833 167.114" stroke="#1D1D1D" stroke-width="2" stroke-miterlimit="10" stroke-linecap="round" stroke-linejoin="round"/>
<path d="M70.9987 168.271C71.7698 168.913 74.23 168.326 75.4234 167.94" stroke="#1D1D1D" stroke-width="2" stroke-miterlimit="10" stroke-linecap="round" stroke-linejoin="round"/>
<path d="M48.4161 156.08C48.0856 156.796 48.5629 158.228 48.8751 158.834" stroke="#1D1D1D" stroke-width="2" stroke-miterlimit="10" stroke-linecap="round" stroke-linejoin="round"/>
<path d="M57.9448 171.19C55.8151 174.44 52.1247 175.67 50.0317 174.605C48.7281 173.944 48.1774 172.182 49.7012 171.429" stroke="#1D1D1D" stroke-width="2" stroke-miterlimit="10" stroke-linecap="round" stroke-linejoin="round"/>
<path d="M58.0917 170.474C58.0733 170.456 57.1553 173.118 57.1553 173.136C57.0268 173.614 56.935 175.156 57.0084 175.652C57.192 176.882 58.3854 177.377 59.3585 178.148C61.0109 179.47 66.1517 179.801 65.1235 176.588" stroke="#1D1D1D" stroke-width="2" stroke-miterlimit="10" stroke-linecap="round" stroke-linejoin="round"/>
<path fill-rule="evenodd" clip-rule="evenodd" d="M63.3243 222.653C63.2508 221.441 59.7441 218.155 54.7869 211.105C51.0966 205.854 53.7037 192.836 60.4601 192.304C61.4883 192.231 64.8665 191.973 66.9045 195.076C67.6572 196.233 68.7772 198.289 66.2068 199.758C61.1762 202.641 60.7539 198.436 61.6168 196.655C61.7086 196.472 55.5213 198.638 57.5225 206.772C59.6339 215.346 68.8873 218.65 69.7502 221.735" fill="#F7F2EE"/>
<path d="M63.3243 222.653C63.2508 221.441 59.7441 218.155 54.7869 211.105C51.0966 205.854 53.7037 192.836 60.4601 192.304C61.4883 192.231 64.8665 191.973 66.9045 195.076C67.6572 196.233 68.7772 198.289 66.2068 199.758C61.1762 202.641 60.7539 198.436 61.6168 196.655C61.7086 196.472 55.5213 198.638 57.5225 206.772C59.6339 215.346 68.8873 218.65 69.7502 221.735" stroke="#1D1D1D" stroke-width="2" stroke-miterlimit="10" stroke-linecap="round" stroke-linejoin="round"/>
<path d="M64.4442 158.705C64.2973 158.614 73.2202 139.813 51.372 135.884" stroke="#1D1D1D" stroke-width="2" stroke-miterlimit="10" stroke-linecap="round" stroke-linejoin="round"/>
<path opacity="0.9116" fill-rule="evenodd" clip-rule="evenodd" d="M46.3781 130.248C45.4234 129.99 44.7257 127.457 42.7612 127.09C41.935 126.943 41.017 126.943 40.3009 127.438C33.875 131.9 46.3414 135.095 48.5078 135.682C49.8298 136.031 49.9399 134.782 50.1051 133.699C51.1517 126.594 44.4136 121.673 45.3867 128.32" fill="black"/>
<path d="M46.3781 130.248C45.4234 129.99 44.7257 127.457 42.7612 127.09C41.935 126.943 41.017 126.943 40.3009 127.438C33.875 131.9 46.3414 135.095 48.5078 135.682C49.8298 136.031 49.9399 134.782 50.1052 133.699C51.1517 126.594 44.4136 121.673 45.3867 128.32" stroke="#161616" stroke-width="2" stroke-miterlimit="10" stroke-linecap="round" stroke-linejoin="round"/>
<path opacity="0.9116" fill-rule="evenodd" clip-rule="evenodd" d="M50.5825 135.039C50.8395 135.315 50.5091 134.268 50.4907 133.901C50.454 133.148 50.4356 132.377 50.4724 131.624C50.5274 129.789 50.6192 123.601 53.9424 124.262C55.4846 124.556 55.0073 126.686 54.6033 127.677C54.585 127.732 54.1443 128.724 54.0342 128.65C53.5752 128.301 56.7698 126.19 57.0819 126.098C57.6511 125.933 58.3304 125.878 58.9179 126.043C64.4259 127.622 55.7784 134.287 53.8689 135.186" fill="black"/>
<path d="M50.5825 135.039C50.8395 135.315 50.5091 134.268 50.4907 133.901C50.454 133.148 50.4356 132.377 50.4724 131.624C50.5274 129.789 50.6192 123.601 53.9424 124.262C55.4846 124.556 55.0073 126.686 54.6033 127.677C54.585 127.732 54.1443 128.724 54.0342 128.65C53.5752 128.301 56.7698 126.19 57.0819 126.098C57.6511 125.933 58.3304 125.878 58.9179 126.043C64.4259 127.622 55.7784 134.287 53.8689 135.186" stroke="#1D1D1D" stroke-width="2" stroke-miterlimit="10" stroke-linecap="round" stroke-linejoin="round"/>
<path d="M53.3732 129.513C53.4467 129.348 53.2814 129.862 53.2263 130.027C53.1345 130.376 53.0611 130.725 52.9693 131.074C52.7122 132.12 52.4919 133.167 52.345 134.232" stroke="#F7F2EE" stroke-width="2" stroke-miterlimit="10" stroke-linecap="round" stroke-linejoin="round"/>
<path d="M46.7085 130.89C46.6902 131.147 47.8101 132.763 47.9754 133.038" stroke="#F7F2EE" stroke-width="2" stroke-miterlimit="10" stroke-linecap="round" stroke-linejoin="round"/>
<path d="M45.8089 140.658C45.8089 140.676 46.0476 140.456 46.066 140.419C46.2679 140.217 46.4882 140.015 46.6902 139.813C47.2777 139.244 47.9203 138.711 48.5629 138.197" stroke="#F7F2EE" stroke-width="2" stroke-miterlimit="10" stroke-linecap="round" stroke-linejoin="round"/>
<path opacity="0.9116" fill-rule="evenodd" clip-rule="evenodd" d="M48.7649 136.343C48.7465 136.178 44.5421 136.527 44.3401 136.582C43.6424 136.765 42.9448 137.132 42.5041 137.72C41.4392 139.207 41.6045 142.328 44.1015 141.539C44.2483 141.484 45.8089 140.602 45.7722 140.584C45.6988 140.529 45.148 141.227 45.1113 141.263C44.2667 142.402 43.0182 145.266 44.8542 146.147C49.9583 148.644 52.0513 139.648 49.8297 136.472" fill="black"/>
<path d="M48.7649 136.343C48.7465 136.178 44.5421 136.527 44.3401 136.582C43.6424 136.765 42.9448 137.132 42.5041 137.72C41.4392 139.207 41.6045 142.328 44.1015 141.539C44.2483 141.484 45.8089 140.602 45.7722 140.584C45.6988 140.529 45.148 141.227 45.1113 141.263C44.2667 142.402 43.0182 145.266 44.8542 146.147C49.9583 148.644 52.0513 139.648 49.8297 136.472" stroke="#1D1D1D" stroke-width="2" stroke-miterlimit="10" stroke-linecap="round" stroke-linejoin="round"/>
<path d="M45.5886 141.006C45.7171 140.97 46.1945 140.254 46.3413 140.088C47.0757 139.281 47.8468 138.436 48.7465 137.793" stroke="#F7F2EE" stroke-width="2" stroke-miterlimit="10" stroke-linecap="round" stroke-linejoin="round"/>
<path d="M38.52 212.426C38.4282 212.647 40.9986 211.821 41.2189 211.747C42.3756 211.343 45.4417 209.636 46.6901 210.333C47.1675 210.59 42.7061 213.4 43.3119 214.024C44.3952 215.144 50.4539 211.27 52.3634 212.555C53.2263 213.142 52.088 214.262 51.6657 214.721C50.3071 216.135 48.5261 217.182 47.2593 218.687C44.8909 221.515 49.8113 220.431 51.0231 220.835" stroke="#1D1D1D" stroke-width="2" stroke-miterlimit="10" stroke-linecap="round" stroke-linejoin="round"/>
<path d="M72.4858 174.146C72.4858 174.018 74.4136 173.155 75.6437 172.751C79.0954 171.594 82.8041 171.172 86.421 171.208" stroke="#1D1D1D" stroke-width="2" stroke-miterlimit="10" stroke-linecap="round" stroke-linejoin="round"/>
<path d="M74.9094 175.945C78.9118 175.505 82.6205 175.45 86.5863 176.368" stroke="#1D1D1D" stroke-width="2" stroke-miterlimit="10" stroke-linecap="round" stroke-linejoin="round"/>
<path d="M73.9363 178.809C74.5422 178.956 75.3316 178.809 75.9742 178.956C78.5446 179.489 80.8947 180.719 83.0061 182.261" stroke="#1D1D1D" stroke-width="2" stroke-miterlimit="10" stroke-linecap="round" stroke-linejoin="round"/>
<path d="M45.6804 162.469C45.6987 162.469 45.6437 162.157 45.6437 162.102C45.5702 161.625 45.4968 161.166 45.3867 160.707C45.1296 159.623 44.7807 158.577 44.3401 157.549C43.0916 154.538 41.3842 151.931 39.2361 149.489" stroke="#1D1D1D" stroke-width="2" stroke-miterlimit="10" stroke-linecap="round" stroke-linejoin="round"/>
<path d="M41.5127 162.432C41.678 162.469 41.2924 162.157 41.2006 162.01C41.0537 161.79 40.9069 161.569 40.7416 161.349C40.2643 160.67 39.6951 160.027 39.1259 159.403C37.7306 157.898 35.2337 154.96 32.9387 154.96" stroke="#1D1D1D" stroke-width="2" stroke-miterlimit="10" stroke-linecap="round" stroke-linejoin="round"/>
<path d="M40.5029 167.335C40.5029 167.353 39.842 167.206 39.8053 167.206C39.1627 167.133 38.5017 167.151 37.8591 167.206C35.8395 167.39 33.8016 167.867 31.8738 168.436" stroke="#1D1D1D" stroke-width="2" stroke-miterlimit="10" stroke-linecap="round" stroke-linejoin="round"/>
<path d="M9.1809 125.143C9.23598 125.125 9.07078 125.143 9.03406 125.162C8.13442 125.272 7.43671 126.612 7.06951 127.31C6.05972 129.274 5.17846 131.845 6.2617 133.956C7.08789 135.59 10.5947 135.847 10.4111 138.087C10.2642 139.886 4.68276 140.749 6.09647 145.101C7.21643 148.589 11.9165 145.909 12.1369 148.442C12.3205 150.609 6.68396 152.004 8.77699 155.86C9.91531 157.953 13.4588 156.245 13.8627 159.128C14.2299 161.716 9.10746 161.441 10.4661 164.948C11.4025 167.316 15.1479 167.224 15.2397 168.73C15.3682 170.621 11.3841 170.749 11.9349 173.191C12.6693 176.441 18.012 175.596 18.0671 176.404C18.1589 177.891 14.4502 179.434 14.7807 182.39C15.0377 184.703 19.0402 184.813 18.8199 186.062C18.4527 188.155 14.8541 188.43 15.4784 191.184C16.1577 194.177 20.3805 192.139 20.8762 194.526C21.4086 197.114 16.2311 198.363 17.9019 201.41C18.8933 203.228 22.5653 202.127 22.9141 204.458C23.061 205.523 19.0035 207.414 19.4441 210.48C19.8297 213.161 23.7587 212.353 23.9606 213.712C24.1993 215.382 19.848 216.484 21.7024 219.605C22.4919 220.927 25.3193 219.385 25.6865 221.129C26.1822 223.553 21.7758 224.213 23.9056 228.051C24.64 229.373 26.5678 227.371 27.4307 228.602C28.367 229.942 26.5494 238.571 33.7832 237.12C36.5004 236.57 36.0782 232.072 38.5017 231.557C40.2092 231.19 41.5494 234.256 43.5139 233.926C45.4784 233.577 45.5519 230.437 47.1492 230.217C48.3242 230.052 49.6829 232.769 51.9044 232.586C53.8873 232.42 54.3463 229.189 56.1455 229.116C58.2569 229.024 59.1566 232.714 61.8922 231.245C63.5079 230.382 63.4528 227.151 65.2154 226.619C67.4553 225.958 68.8139 230.144 71.4393 229.703C74.0465 229.244 72.5042 225.866 74.23 224.966C76.2313 223.92 77.8102 227.794 79.7564 227.445C82.4002 226.967 81.4088 223.901 83.1163 223.167C85.2276 222.286 86.6597 225.352 88.8262 225.095C91.8005 224.728 90.2399 221.202 92.5349 220.615C94.3158 220.174 95.6193 222.873 97.3268 222.983C99.3097 223.13 98.2999 220.395 99.8238 219.587C101.513 218.687 103.845 220.229 105.313 218.761C110.601 213.455 102.67 211.894 102.1 209.434C101.605 207.286 104.652 206.019 103.643 203.412C103.037 201.851 99.7136 203.265 100.209 200.492C100.558 198.528 103.551 199.116 102.302 195.462C101.77 193.883 98.355 194.507 98.355 192.341C98.355 190.89 101.917 190.468 100.815 186.153C100.393 184.483 97.8593 185.052 97.6206 183.308C97.5471 182.812 100.503 180.535 99.3831 176.643C98.9425 175.101 96.3537 176.625 95.5275 173.246C94.8666 170.584 99.3464 169.446 98.0428 165.48C97.8225 164.838 93.765 166.527 93.1591 164.232C92.6818 162.396 95.0318 161.147 95.1603 159.275C95.3806 156.337 92.2044 157.806 92.0759 155.254C91.9657 153.326 94.6279 151.875 94.5728 149.58C94.5177 146.863 90.7356 148.002 90.1664 145.945C89.5055 143.558 92.9388 143.063 92.9939 140.786C93.0673 138.05 91.9106 138.197 89.9645 137.279C87.1003 135.939 90.7356 133.332 91.3047 132.157C93.6548 127.328 87.596 128.191 87.2656 125.511C86.9718 122.959 90.3867 123.197 90.6071 120.737C90.8641 117.873 87.2839 120.076 86.3843 118.112C85.7968 116.845 89.175 111.869 83.9792 109.905C77.8102 107.591 78.9118 113.503 75.35 113.779C73.5507 113.926 72.596 109.831 68.6854 111.594C66.6291 112.512 67.8592 115.872 65.0501 116.202C63.5997 116.367 61.9106 113.503 58.9546 113.926C56.4944 114.274 56.6229 118.314 54.5666 118.864C52.0329 119.562 51.0048 115.743 48.8016 115.964C43.8811 116.459 46.5984 120.498 43.5507 121.288C41.5127 121.82 41.0721 119.305 39.3095 119.232C36.3352 119.103 36.6473 122.555 34.0219 122.94C31.8003 123.271 30.6069 120.59 28.11 121.012C23.722 121.747 23.061 125.18 21.9043 125.639C21.8676 125.658 21.8125 125.658 21.7758 125.676C19.8297 125.804 19.6644 122.114 17.4429 122.316C14.5787 122.573 15.9741 127.035 14.0096 128.191C13.4955 128.356 10.1723 125.162 9.1809 125.143Z" stroke="#1D1D1D" stroke-width="2" stroke-miterlimit="10" stroke-linecap="round" stroke-linejoin="round"/>
<path fill-rule="evenodd" clip-rule="evenodd" d="M179.855 148.92C182.884 148.607 126.739 154.281 116.293 154.427C112.823 154.483 127.015 142.897 129.934 141.025C145.099 131.294 149.506 142.787 158.025 137.977C161.385 136.086 161.843 136.123 164.799 133.736C173.043 127.053 182.498 121.93 193.037 125.364C198.361 127.108 203.245 133.718 208.698 131.643C217.29 128.375 223.202 121.233 227.572 124.244C228.655 124.978 229.628 132.083 229.794 137.316C229.885 140.309 231.85 141.208 228.031 143.687C224.891 145.725 167.7 150.15 179.855 148.92Z" fill="#00A54D"/>
<path d="M179.855 148.92C182.884 148.607 126.739 154.281 116.293 154.427C112.823 154.483 127.015 142.897 129.934 141.025C145.099 131.294 149.506 142.787 158.025 137.977C161.385 136.086 161.843 136.123 164.799 133.736C173.043 127.053 182.498 121.93 193.037 125.364C198.361 127.108 203.245 133.718 208.698 131.643C217.29 128.375 223.202 121.233 227.572 124.244C228.655 124.978 229.628 132.083 229.794 137.316C229.885 140.309 231.85 141.208 228.031 143.687C224.891 145.725 167.7 150.15 179.855 148.92Z" stroke="#161616" stroke-width="2" stroke-miterlimit="10" stroke-linecap="round" stroke-linejoin="round"/>
<path d="M125.436 150.462C130.981 146.239 135.185 144.274 137.774 143.503C145.522 141.208 156.739 144.017 167.976 143.999C171.538 143.999 176.642 141.08 179.341 143.962C179.873 144.532 179.175 145.651 178.533 146C175.797 147.487 168.857 147.322 163.239 146.166C159.475 145.394 155.161 145.321 151.36 145.945C149.91 146.184 145.797 147.322 148.845 148.424C152.627 149.782 157.198 146.588 160.613 148.369" stroke="#F7F2EE" stroke-width="2" stroke-miterlimit="10" stroke-linecap="round" stroke-linejoin="round"/>
<path d="M160.889 140.749C168.967 134.323 180.809 127.402 186.152 128.944C200.179 133.001 198.692 133.864 209.763 133.993C215.95 134.066 219.677 129.605 225.883 131.257C226.434 131.404 226.911 131.661 227.241 132.065C228.637 133.754 224.432 135.792 223 136.196C209.671 139.905 197.021 131.074 183.802 133.901C183.012 134.066 180.277 134.562 180.35 135.609C180.571 138.62 198.068 135.26 198.673 137.169C198.802 137.573 197.957 137.867 197.645 137.977C195.571 138.656 178.9 137.573 180.956 141.686C182.278 144.33 199.224 140.125 201.868 139.611C207.119 138.62 212.829 137.959 218.227 138.454C221.513 138.767 223.404 140.951 226.911 140.107" stroke="#F7F2EE" stroke-width="2" stroke-miterlimit="10" stroke-linecap="round" stroke-linejoin="round"/>
<path d="M198.857 152.977C198.894 152.867 199.096 152.867 199.188 152.849C201.189 152.61 202.144 156.98 204.09 155.804C205.136 155.162 204.842 153.473 205.944 152.849C208.625 151.343 208.496 156.429 210.993 155.841C213.178 155.327 212.572 151.82 215.051 151.912C216.795 151.986 217.345 154.666 218.924 154.501C220.687 154.317 220.54 151.288 222.284 151.196C224.102 151.086 224.414 154.189 226.397 153.675C228.398 153.142 227.462 150.223 228.857 149.617C229.702 149.25 232.437 154.06 235.669 150.645C239.855 146.221 235.265 144.807 235.962 141.447C236.238 140.052 238.129 139.703 238.441 138.106C238.515 137.72 238.514 137.316 238.386 136.931C237.817 135.15 234.861 135.719 234.494 133.681C234.145 131.79 237.541 131.533 237.156 129.421C236.807 127.42 234.09 128.301 233.539 126.52C232.823 124.225 237.266 123.106 236.752 120.168C236.293 117.524 232.033 119.066 231.721 116.588C231.409 114.109 235.155 112.512 234.292 109.776C233.704 107.885 229.041 109.115 229.408 106.453C229.775 103.754 234.42 103.754 233.796 100.872C233.208 98.136 228.655 100.137 228.233 98.081C227.645 95.2168 232.254 93.6011 230.161 90.021C226.525 83.797 223.845 92.2241 219.475 91.2327C217.456 90.7737 218.153 87.524 215.179 88.0197C213.104 88.3502 212.241 92.5913 209.653 91.453C207.651 90.5718 208.698 86.8263 204.64 87.6893C202.529 88.1299 202.254 92.8851 199.206 92.6464C197.847 92.5363 197.37 87.9647 194.12 88.9561C192.284 89.5069 191.568 92.9585 188.539 93.289C187.235 93.4359 186.281 89.9659 183.545 90.48C181.397 90.8839 181.305 94.1152 178.845 94.3906C177.027 94.5926 176.091 90.7186 173.576 91.1042C171.299 91.453 172.18 95.5657 169.445 95.8043C167.847 95.9329 166.874 92.371 165.075 92.0222C163.147 91.6366 162.523 96.043 160.063 96.2817C158.539 96.4286 158.979 92.9035 155.766 92.9035C153.49 92.9035 154.114 96.6856 152.205 97.3466C150.644 97.879 148.367 94.0418 145.852 94.0418C143.318 94.0418 144.181 97.7505 141.795 97.7505C141.739 97.7505 141.813 98.4298 141.574 98.4482C141.354 98.4665 140.858 98.3931 140.748 98.1728C140.62 97.9341 141.097 97.7872 140.748 97.7872C140.289 97.7872 139.812 97.8056 139.353 97.7688C139.187 97.7505 139.261 97.7688 139.096 97.7321C137.443 97.5118 136.599 96.043 135.167 95.3086L133.312 94.4641C129.677 93.2156 131.146 98.7603 128.888 99.4029C127.859 99.6966 127.07 94.5375 125.014 94.5375C123.526 94.5375 124.334 98.9806 121.69 99.5314C119.065 100.082 119.212 92.9218 115.889 93.748C112.951 94.4824 114.548 98.3013 112.878 98.9806C112.07 99.3111 111.299 99.1642 110.583 98.7786C110.252 98.595 109.096 97.3282 108.159 97.0344C107.039 96.6856 104.579 96.3551 103.9 96.6856C101.715 97.7321 102.174 98.081 102.321 100.413C102.504 103.038 107.168 104.929 107.058 107.408C106.966 109.336 103.092 109.978 103.037 112.42C102.982 114.605 106.507 114.972 107.094 116.845C107.774 119.011 103.771 120.498 104.083 122.757C104.414 125.033 107.333 124.538 107.608 126.686C107.884 128.889 105.093 130.027 104.928 132.304C104.671 135.645 107.388 134.856 107.627 136.49C107.957 138.711 104.524 140.199 104.487 142.622C104.45 145.248 107.223 144.274 107.829 146.166C108.196 147.359 105.974 148.901 105.791 150.26C105.424 152.885 107.884 151.747 108.159 153.326C108.581 155.823 105.203 158.999 107.774 161.478C111.078 164.672 112.804 160.119 116.054 159.991C117.394 159.935 118.018 162.028 119.395 162.304C121.837 162.8 122.755 159.917 124.83 159.917C126.28 159.917 126.666 162.304 128.355 162.341C130.411 162.414 130.779 159.348 132.688 159.587C134.322 159.789 134.579 162.745 136.801 162.634C138.526 162.561 139.169 158.907 141.446 159.348C142.859 159.623 143.337 162.543 146.072 162.194C147.468 162.01 147.798 158.448 151.47 158.32C153.71 158.246 154.848 161.459 157.125 160.964C159.108 160.541 158.924 157.989 160.301 157.494C161.128 157.181 163.624 159.642 165.607 159.458C168.471 159.183 167.352 156.649 168.692 156.557C171.023 156.392 172.382 159.311 174.769 159.238C176.642 159.183 177.192 155.731 179.194 155.419C181.232 155.107 182.168 158.467 184.591 158.375C186.17 158.32 186.391 155.29 188.062 154.721C190.834 153.767 191.421 157.145 194.175 156.851C195.222 156.741 195.35 154.097 198.435 153.032" stroke="#1D1D1D" stroke-width="2" stroke-miterlimit="10" stroke-linecap="round" stroke-linejoin="round"/>
<path fill-rule="evenodd" clip-rule="evenodd" d="M189.696 107.665C189.126 105.7 188.649 104.195 190.779 104.47C191.899 104.617 191.789 105.7 191.623 107.206C191.458 108.693 191.752 108.785 192.798 107.867C197.003 104.121 196.544 101.294 198.159 100.578C198.417 100.468 199.298 100.89 198.472 101.845C197.957 102.432 196.929 104.654 195.846 106.178C194.23 108.473 192.211 110.327 192.101 111.3C192.046 111.777 191.954 112.952 192.082 113.724C192.743 117.726 195.718 124.354 196.525 126.631C196.746 127.236 195.901 126.557 195.369 126.777C193.863 127.402 194.304 125.731 192.284 120.205C191.495 118.038 191.128 115.908 190.687 115.706C189.677 115.247 188.135 118.644 188.098 118.828C187.731 120.884 189.273 126.998 187.327 127.677C186.427 127.989 186.06 126.667 186.152 126.337C186.611 124.556 185.877 120.517 186.611 117.965C187.29 115.541 189.402 114.587 189.218 112.677C189.126 111.833 189.273 111.282 189.053 110.823C188.374 109.446 186.831 108.711 185.656 106.875C183.729 103.901 181.232 101.973 182.021 101.312C183.012 100.486 186.152 105.425 188.594 108.399C189.126 109.06 189.42 108.087 189.696 107.665Z" fill="#1D1D1D"/>
<path d="M189.696 107.665C189.126 105.7 188.649 104.195 190.779 104.47C191.899 104.617 191.789 105.7 191.623 107.206C191.458 108.693 191.752 108.785 192.798 107.867C197.003 104.121 196.544 101.294 198.159 100.578C198.417 100.468 199.298 100.89 198.472 101.845C197.957 102.432 196.929 104.654 195.846 106.178C194.23 108.473 192.211 110.327 192.101 111.3C192.046 111.777 191.954 112.952 192.082 113.724C192.743 117.726 195.718 124.354 196.525 126.631C196.746 127.236 195.901 126.557 195.369 126.777C193.863 127.402 194.304 125.731 192.284 120.205C191.495 118.038 191.128 115.908 190.687 115.706C189.677 115.247 188.135 118.644 188.098 118.828C187.731 120.884 189.273 126.998 187.327 127.677C186.427 127.989 186.06 126.667 186.152 126.337C186.611 124.556 185.877 120.517 186.611 117.965C187.29 115.541 189.402 114.587 189.218 112.677C189.126 111.833 189.273 111.282 189.053 110.823C188.374 109.446 186.831 108.711 185.656 106.875C183.729 103.901 181.232 101.973 182.021 101.312C183.012 100.486 186.152 105.425 188.594 108.399C189.126 109.06 189.42 108.087 189.696 107.665Z" stroke="#161616" stroke-width="2" stroke-miterlimit="10" stroke-linecap="round" stroke-linejoin="round"/>
<path d="M176.531 105.737C176.642 105.645 176.568 106.012 176.568 106.159C176.862 108.895 176.935 111.667 177.101 114.403C177.449 120.094 177.56 120.15 177.835 125.823" stroke="#161616" stroke-width="2" stroke-miterlimit="10" stroke-linecap="round" stroke-linejoin="round"/>
<path d="M176.201 105.645C176.293 106.068 175.393 105.315 174.989 105.223C173.612 104.911 172.143 104.892 170.803 105.351C168.012 106.288 166.782 109.189 164.23 110.327C163.074 110.841 160.668 110.492 159.75 111.318C159.42 111.612 160.265 118.148 160.265 119.213C160.265 119.25 160.246 119.397 160.265 119.415C161.311 120.462 164.285 120.076 165.442 119.654C168.343 118.571 173.667 111.484 176.587 113.43" stroke="#161616" stroke-width="2" stroke-miterlimit="10" stroke-linecap="round" stroke-linejoin="round"/>
<path d="M160.32 115.046C160.283 115.046 161.091 115.119 161.329 115.064C161.495 115.027 161.66 114.99 161.825 114.954C162.89 114.697 163.9 114.403 164.836 113.87C167.407 112.402 169.316 109.409 172.18 108.528" stroke="#1D1D1D" stroke-width="2" stroke-miterlimit="10" stroke-linecap="round" stroke-linejoin="round"/>
<path d="M164.01 116.918C164.047 116.845 164.726 116.698 164.836 116.643C165.607 116.257 166.323 115.78 167.021 115.303C169.169 113.834 170.913 111.814 173.318 110.731C174.108 110.364 175.393 109.813 176.293 110.107" stroke="#1D1D1D" stroke-width="2" stroke-miterlimit="10" stroke-linecap="round" stroke-linejoin="round"/>
<path d="M205.173 109.317C205.43 109.684 205.338 112.53 205.356 113.136" stroke="#1D1D1D" stroke-width="2" stroke-miterlimit="10" stroke-linecap="round" stroke-linejoin="round"/>
<path d="M203.41 111.172C204.438 111.575 206.935 111.025 208.037 110.859" stroke="#1D1D1D" stroke-width="2" stroke-miterlimit="10" stroke-linecap="round" stroke-linejoin="round"/>
<path d="M206.844 109.574C206.954 109.427 206.623 109.886 206.513 110.015C206.275 110.29 206.017 110.566 205.779 110.841C205.063 111.686 204.328 112.549 203.539 113.32" stroke="#1D1D1D" stroke-width="2" stroke-miterlimit="10" stroke-linecap="round" stroke-linejoin="round"/>
<path d="M203.576 109.629C204.897 110.419 206.183 111.741 207.394 112.714" stroke="#1D1D1D" stroke-width="2" stroke-miterlimit="10" stroke-linecap="round" stroke-linejoin="round"/>
<path d="M151.599 101.735C151.489 101.826 151.709 102.818 151.727 102.946C151.856 104.176 151.966 105.407 152.131 106.637" stroke="#1D1D1D" stroke-width="2" stroke-miterlimit="10" stroke-linecap="round" stroke-linejoin="round"/>
<path d="M149.083 104.635C148.9 104.635 149.432 104.58 149.616 104.544C150.001 104.489 150.387 104.433 150.772 104.397C151.911 104.287 153.031 104.066 154.151 103.883" stroke="#1D1D1D" stroke-width="2" stroke-miterlimit="10" stroke-linecap="round" stroke-linejoin="round"/>
<path d="M153.453 101.918C153.637 101.918 153.251 102.212 153.141 102.359C152.939 102.653 152.774 102.946 152.59 103.24C152.003 104.158 151.415 105.094 150.772 105.976" stroke="#1D1D1D" stroke-width="2" stroke-miterlimit="10" stroke-linecap="round" stroke-linejoin="round"/>
<path d="M149.763 102.671C149.726 102.671 150.222 103.075 150.258 103.112C150.607 103.35 150.974 103.571 151.342 103.791C152.462 104.47 153.508 105.296 154.646 105.939" stroke="#1D1D1D" stroke-width="2" stroke-miterlimit="10" stroke-linecap="round" stroke-linejoin="round"/>
<path d="M156.868 123.491C156.868 123.491 154.151 125.327 153.93 125.492" stroke="#1D1D1D" stroke-width="2" stroke-miterlimit="10" stroke-linecap="round" stroke-linejoin="round"/>
<path d="M152.976 118.919C153.086 118.828 152.076 119.066 152.021 119.085C150.754 119.378 149.506 119.782 148.257 120.113C145.944 120.755 143.612 121.361 141.28 121.967" stroke="#1D1D1D" stroke-width="2" stroke-miterlimit="10" stroke-linecap="round" stroke-linejoin="round"/>
<path d="M135.46 124.997C135.497 124.978 135.313 124.997 135.313 124.997C132.835 125.419 130.356 126.318 127.914 126.979C123.104 128.283 118.22 129.733 113.3 130.596" stroke="#1D1D1D" stroke-width="2" stroke-miterlimit="10" stroke-linecap="round" stroke-linejoin="round"/>
<path d="M152.021 112.971C152.737 112.861 150.589 113.063 149.873 113.136" stroke="#1D1D1D" stroke-width="2" stroke-miterlimit="10" stroke-linecap="round" stroke-linejoin="round"/>
<path d="M141.574 112.971C141.648 112.952 141.482 112.971 141.482 112.971C140.399 112.971 139.334 112.952 138.251 112.879C135.24 112.714 132.174 112.2 129.145 112.2" stroke="#1D1D1D" stroke-width="2" stroke-miterlimit="10" stroke-linecap="round" stroke-linejoin="round"/>
<path d="M122.278 111.686C121.286 110.786 116.127 111.19 114.714 111.025" stroke="#1D1D1D" stroke-width="2" stroke-miterlimit="10" stroke-linecap="round" stroke-linejoin="round"/>
<path d="M124.646 103.552C124.683 103.626 124.83 103.589 124.903 103.607C128.245 103.773 131.641 104.599 134.946 104.599" stroke="#1D1D1D" stroke-width="2" stroke-miterlimit="10" stroke-linecap="round" stroke-linejoin="round"/>
<path d="M141.886 104.599C141.629 104.617 142.4 104.654 142.657 104.691" stroke="#1D1D1D" stroke-width="2" stroke-miterlimit="10" stroke-linecap="round" stroke-linejoin="round"/>
<path d="M159.952 104.525C159.457 105.113 161.476 104.801 162.229 104.966" stroke="#1D1D1D" stroke-width="2" stroke-miterlimit="10" stroke-linecap="round" stroke-linejoin="round"/>
<path d="M211.544 105.682C211.562 105.7 211.948 105.59 212.498 105.351" stroke="#1D1D1D" stroke-width="2" stroke-miterlimit="10" stroke-linecap="round" stroke-linejoin="round"/>
<path d="M217.786 103.754C217.547 103.993 218.374 103.46 218.686 103.314C219.255 103.038 219.842 102.781 220.412 102.506C222.358 101.533 224.286 100.486 226.213 99.4763" stroke="#1D1D1D" stroke-width="2" stroke-miterlimit="10" stroke-linecap="round" stroke-linejoin="round"/>
<path d="M213.013 111.594C212.939 111.667 213.141 111.667 213.196 111.686C215.546 112.034 217.988 112.053 220.357 112.236" stroke="#1D1D1D" stroke-width="2" stroke-miterlimit="10" stroke-linecap="round" stroke-linejoin="round"/>
<path d="M227.186 113.136C227.425 113.283 227.627 113.375 227.939 113.411" stroke="#1D1D1D" stroke-width="2" stroke-miterlimit="10" stroke-linecap="round" stroke-linejoin="round"/>
<path d="M208.716 116.9C209.359 117.542 210.222 117.965 211.048 118.314" stroke="#1D1D1D" stroke-width="2" stroke-miterlimit="10" stroke-linecap="round" stroke-linejoin="round"/>
<path d="M216.868 120.866C217.217 121.214 218.172 121.435 218.704 121.637" stroke="#1D1D1D" stroke-width="2" stroke-miterlimit="10" stroke-linecap="round" stroke-linejoin="round"/>
<path d="M203.172 119.984C203.429 120.058 203.686 120.315 203.924 120.462" stroke="#1D1D1D" stroke-width="2" stroke-miterlimit="10" stroke-linecap="round" stroke-linejoin="round"/>
<path d="M207.798 125.199C207.817 125.162 208.533 125.731 208.716 125.915" stroke="#1D1D1D" stroke-width="2" stroke-miterlimit="10" stroke-linecap="round" stroke-linejoin="round"/>
<path d="M160.283 128.852C157.254 129.568 153.637 133.552 150.974 135.205" stroke="#1D1D1D" stroke-width="2" stroke-miterlimit="10" stroke-linecap="round" stroke-linejoin="round"/>
<path d="M147.247 128.779C147.596 128.705 146.678 129.219 146.384 129.421C145.558 129.99 144.695 130.486 143.832 130.982C141.666 132.267 139.5 133.571 137.278 134.746" stroke="#1D1D1D" stroke-width="2" stroke-miterlimit="10" stroke-linecap="round" stroke-linejoin="round"/>
<path d="M210.24 98.54C213.123 96.7407 215.968 94.1336 218.649 91.9671" stroke="#1D1D1D" stroke-width="2" stroke-miterlimit="10" stroke-linecap="round" stroke-linejoin="round"/>
<path fill-rule="evenodd" clip-rule="evenodd" d="M131.054 242.757C133.422 238.553 134.946 231.594 131.384 225.187C130.834 224.195 139.169 224.507 142.878 224.232C149.249 223.754 155.528 223.681 161.899 223.571C172.676 223.387 180.828 219.036 183.141 228.803C183.453 230.144 183.178 242.757 179.01 243.308C171.776 244.263 155.216 244.63 139.334 244.409C135.534 244.354 130.063 244.501 131.054 242.757Z" fill="#1D1D1D"/>
<path d="M131.054 242.757C133.422 238.553 134.946 231.594 131.384 225.187C130.834 224.195 139.169 224.507 142.878 224.232C149.249 223.754 155.528 223.681 161.899 223.571C172.676 223.387 180.828 219.036 183.141 228.803C183.453 230.144 183.178 242.757 179.01 243.308C171.776 244.263 155.216 244.63 139.334 244.409C135.534 244.354 130.063 244.501 131.054 242.757Z" stroke="#161616" stroke-width="2" stroke-miterlimit="10" stroke-linecap="round" stroke-linejoin="round"/>
<path fill-rule="evenodd" clip-rule="evenodd" d="M179.91 222.12C179.744 222.01 177.101 218.687 176.935 217.989C175.87 213.73 177.706 206.974 177.615 206.9C177.486 206.79 137.186 208.167 134.267 209.085C129.75 210.48 129.769 220.45 132.413 223.534" fill="#FF8524"/>
<path d="M179.91 222.12C179.744 222.01 177.101 218.687 176.935 217.989C175.87 213.73 177.706 206.974 177.615 206.9C177.486 206.79 137.186 208.167 134.267 209.085C129.75 210.48 129.769 220.45 132.413 223.534" stroke="#161616" stroke-width="2" stroke-miterlimit="10" stroke-linecap="round" stroke-linejoin="round"/>
<path opacity="0.9116" fill-rule="evenodd" clip-rule="evenodd" d="M138.637 208.13C140.454 204.972 142.437 202.328 140.601 198.271C140.362 197.739 138.581 195.315 138.581 195.315C138.581 195.315 145.081 195.388 147.633 194.911C150.571 194.36 153.949 193.608 157.198 193.167C164.91 192.12 171.923 192.91 170.785 202.641C170.583 204.385 170.05 205.193 168.747 206.257" fill="black"/>
<path d="M138.637 208.13C140.454 204.972 142.437 202.328 140.601 198.271C140.362 197.739 138.581 195.315 138.581 195.315C138.581 195.315 145.081 195.388 147.633 194.911C150.571 194.36 153.949 193.608 157.198 193.167C164.91 192.12 171.923 192.91 170.785 202.641C170.583 204.385 170.05 205.193 168.747 206.257" stroke="#1D1D1D" stroke-width="2" stroke-miterlimit="10" stroke-linecap="round" stroke-linejoin="round"/>
<path fill-rule="evenodd" clip-rule="evenodd" d="M132.302 226.068C133.753 225.682 137.627 225.774 138.141 225.756C143.465 225.462 147.358 225.131 152.627 224.985C156.097 224.893 166.342 224.654 174.952 224.287C177.725 224.177 177.817 223.846 178.882 224.672C180.718 226.086 181.14 230.199 180.846 234.734C180.736 236.551 179.873 241.27 177.651 241.343C169.261 241.655 151.746 245.107 131.017 242.335C132.688 238.497 133.514 236.294 133.514 234.972C133.496 230.125 133.202 228.84 132.302 226.068Z" fill="#F7F2EE"/>
<path d="M132.302 226.068C133.753 225.682 137.627 225.774 138.141 225.756C143.465 225.462 147.358 225.131 152.627 224.985C156.097 224.893 166.342 224.654 174.952 224.287C177.725 224.177 177.817 223.846 178.882 224.672C180.718 226.086 181.14 230.199 180.846 234.734C180.736 236.551 179.873 241.27 177.651 241.343C169.261 241.655 151.746 245.107 131.017 242.335C132.688 238.497 133.514 236.294 133.514 234.972C133.496 230.125 133.202 228.84 132.302 226.068Z" stroke="#161616" stroke-width="2" stroke-miterlimit="10" stroke-linecap="round" stroke-linejoin="round"/>
<path d="M136.14 229.501C138.435 229.446 142.657 229.336 144.952 229.226C151.323 228.914 157.694 228.363 164.065 228.124C165.864 228.051 168.343 228.179 170.142 228.143C173.025 228.051 173.649 227.959 173.594 228.216C173.373 229.171 164.708 230.18 163.79 230.18C156.446 230.217 144.732 232.163 140.932 231.282C140.216 231.117 135.901 231.172 135.589 231.814C135.02 232.934 137.921 232.31 138.067 232.31C140.069 232.347 142.492 232.145 144.493 232.145C151.599 232.09 158.704 232.016 165.809 231.943C167.847 231.925 169.995 231.686 172.015 231.998C172.125 232.016 172.455 232.035 172.492 232.218C172.511 232.347 172.345 232.42 172.272 232.457C169.848 233.577 166.25 233.926 163.716 233.926C156.776 233.926 149.506 233.687 142.584 234.367C141.574 234.458 136.562 234.146 135.993 235.248C135.791 235.633 136.158 236.79 136.268 236.79C139.004 237.139 141.996 236.202 144.732 236.184C151.452 236.129 158.649 235.927 165.369 236.111C166.929 236.147 171.795 236.331 171.868 236.588C171.905 236.698 171.464 236.79 171.446 236.79C169.077 237.341 166.103 238.02 163.716 238.149C158.814 238.387 153.545 239.305 148.661 239.617C143.759 239.93 138.159 238.075 133.422 239.507" stroke="#161616" stroke-width="2" stroke-miterlimit="10" stroke-linecap="round" stroke-linejoin="round"/>
<path d="M142.07 198.877C142.07 198.895 142.052 198.895 142.07 198.877" stroke="#161616" stroke-width="2" stroke-miterlimit="10" stroke-linecap="round" stroke-linejoin="round"/>
<path fill-rule="evenodd" clip-rule="evenodd" d="M175.32 211.325C175.099 211.306 169.683 211.068 169.463 211.049C168.802 211.031 163.165 211.105 161.201 211.343C155.968 212.004 150.148 212.169 144.897 212.353C142.639 212.426 137.774 212.867 135.497 212.867C135.075 212.867 135.405 219.128 135.515 220.046C135.626 220.854 136.966 220.945 137.498 221C139.555 221.221 141.868 221.313 143.924 221.202C150.754 220.835 173.979 219.091 176.219 218.65" fill="#F7F2EE"/>
<path d="M175.32 211.325C175.099 211.306 169.683 211.068 169.463 211.049C168.802 211.031 163.165 211.105 161.201 211.343C155.968 212.004 150.148 212.169 144.897 212.353C142.639 212.426 137.774 212.867 135.497 212.867C135.075 212.867 135.405 219.128 135.515 220.046C135.626 220.854 136.966 220.945 137.498 221C139.555 221.221 141.868 221.313 143.924 221.202C150.754 220.835 173.979 219.091 176.219 218.65" stroke="#161616" stroke-width="2" stroke-miterlimit="10" stroke-linecap="round" stroke-linejoin="round"/>
<path fill-rule="evenodd" clip-rule="evenodd" d="M140.16 196.82C141.629 196.692 150.258 196.049 151.727 195.939C156.868 195.572 161.568 195.242 163.129 195.444C164.469 195.627 167.792 195.59 167.939 197.83C168.306 202.879 168.508 204.33 166.342 204.679C160.595 205.597 145.283 206.294 139.591 206.459C140.362 205.89 141.501 202.824 141.593 201.209C141.703 199.648 140.05 196.343 140.16 196.82Z" fill="#F7F2EE"/>
<path d="M140.16 196.82C141.629 196.692 150.258 196.049 151.727 195.939C156.868 195.572 161.568 195.242 163.129 195.444C164.469 195.627 167.792 195.59 167.939 197.83C168.306 202.879 168.508 204.33 166.342 204.679C160.595 205.597 145.283 206.294 139.591 206.459C140.362 205.89 141.501 202.824 141.593 201.209C141.703 199.648 140.05 196.343 140.16 196.82Z" stroke="#1D1D1D" stroke-width="2" stroke-miterlimit="10" stroke-linecap="round" stroke-linejoin="round"/>
<path d="M175.668 214.097C172.621 213.657 169.151 214.207 166.103 214.262C158.667 214.391 151.213 214.446 143.796 214.978" stroke="#161616" stroke-width="2" stroke-miterlimit="10" stroke-linecap="round" stroke-linejoin="round"/>
<path d="M140.087 217.384C140.05 217.365 140.693 217.384 140.803 217.384C141.537 217.402 142.272 217.42 143.025 217.439C145.007 217.512 146.972 217.586 148.955 217.53C154.903 217.365 160.815 216.19 166.764 216.007" stroke="#161616" stroke-width="2" stroke-miterlimit="10" stroke-linecap="round" stroke-linejoin="round"/>
<path d="M141.813 200.272C141.648 200.437 142.29 200.254 142.529 200.235C142.97 200.18 143.41 200.144 143.833 200.089C145.099 199.96 146.366 199.795 147.633 199.611C151.47 199.079 155.344 198.473 159.218 198.271C160.265 198.216 162.394 197.996 163.11 199.079C163.661 199.923 159.916 199.997 159.604 200.033C156.207 200.382 152.81 200.878 149.451 201.539C148.9 201.649 146.403 201.851 146.201 202.586C146.146 202.751 146.495 202.806 146.586 202.824C147.927 203.045 149.414 202.714 150.754 202.53C153.453 202.182 156.097 202.292 158.796 202.237" stroke="#1D1D1D" stroke-width="2" stroke-miterlimit="10" stroke-linecap="round" stroke-linejoin="round"/>
<path d="M120.497 184.978C120.222 184.097 122.608 187.512 121.69 189.587C120.938 191.294 118.881 191.331 119.212 193.681C119.506 195.719 121.929 195.444 121.36 197.922C120.974 199.556 116.733 202.127 119.212 204.44C119.854 205.027 120.919 204.936 121.507 205.597C124.261 208.681 117.431 208.295 118.496 211.49C119.047 213.124 121.819 213.418 121.874 215.199C121.929 217.329 117.927 218.008 118.698 220.854C119.157 222.579 121.856 222.231 121.709 225.26C121.617 227.114 118.275 225.976 118.422 228.216C118.551 230.236 122.223 229.648 121.268 232.347C120.626 234.165 117.468 234.091 117.798 236.588C118.055 238.589 121.103 239.305 121.378 240.646C121.929 243.271 115.907 243.014 118.845 247.255C122.719 252.837 124.224 247.053 128.025 247.384C129.934 247.549 129.567 250.597 132.064 250.193C133.716 249.917 134.634 246.686 136.36 247.218C138.012 247.714 138.141 250.064 139.701 250.413C141.684 250.854 142.657 247.531 144.952 247.916C146.568 248.173 146.715 250.56 148.624 250.799C150.681 251.056 151.213 248.357 153.398 248.559C154.977 248.687 155.032 250.78 156.886 250.982C159.328 251.239 159.347 248.632 161.476 248.577C163.22 248.54 163.349 250.633 164.965 250.835C166.911 251.092 167.131 248.669 168.765 248.375C170.546 248.063 171.538 250.909 173.392 250.964C174.659 251.001 175.246 248.669 176.678 248.338C178.735 247.861 178.386 250.119 179.91 250.321C181.213 250.486 181.691 248.467 182.976 248.155C185.381 247.604 186.042 251.68 191.054 247.916C191.091 247.879 191.128 247.861 191.164 247.824C191.183 247.806 191.201 247.806 191.219 247.788C191.238 247.769 191.256 247.769 191.274 247.751C191.293 247.733 191.311 247.733 191.33 247.714C193.165 246.098 190.32 244.354 190.742 242.702C191.036 241.527 194.506 240.903 193.68 238.332C193.276 237.065 191.036 236.57 191.256 234.936C191.421 233.632 193.845 233.155 194.102 231.631C194.451 229.575 191.238 229.373 191.311 227.408C191.366 225.774 193.569 224.783 193.478 222.745C193.423 221.258 191.183 220.743 191.568 219.054C191.899 217.549 193.918 216.998 193.992 215.125C194.047 213.418 191.458 212.867 191.77 210.646C191.99 209.067 194.267 208.589 194.377 206.882C194.524 204.623 192.211 204.917 191.789 203.375C191.293 201.539 194.249 201.08 194.542 199.464C194.653 198.822 194.341 198.344 193.937 197.849C193.294 197.078 192.027 196.508 191.733 195.535C191.421 194.47 193.771 194.158 194.359 193.552C197.039 190.762 191.935 190.303 192.248 187.494C192.303 187.016 198.288 184.483 193.239 180.701C189.897 178.204 188.172 183.491 185.032 182.83C183.141 182.426 183.435 180.076 181.36 179.764C178.349 179.324 178.11 182.849 175.063 182.996C172.786 183.106 171.446 180.352 169.041 180.26C165.552 180.131 165.167 183.675 164.285 183.785C163.055 183.932 161.972 180.756 160.265 180.572C158.667 180.388 157.97 182.959 156.354 183.216C154.426 183.546 154.279 180.333 152.351 180.407C149.928 180.517 149.891 183.234 147.908 183.399C145.999 183.546 145.815 181.637 144.365 181.196C141.886 180.462 141.648 183.363 139.812 183.326C137.443 183.271 135.828 180.572 133.588 180.847C131.568 181.104 131.201 184.813 129.677 183.913C127.419 182.555 119.616 178.479 120.497 184.978Z" stroke="#1D1D1D" stroke-width="2" stroke-miterlimit="10" stroke-linecap="round" stroke-linejoin="round"/>
<path d="M178.184 187.126C178.055 187.016 178.129 187.126 178.129 187.365C178.129 189.77 178.404 192.212 178.239 194.599" stroke="#1D1D1D" stroke-width="2" stroke-miterlimit="10" stroke-linecap="round" stroke-linejoin="round"/>
<path d="M175.999 191.019C175.485 191.147 180.479 190.321 181.764 190.174" stroke="#1D1D1D" stroke-width="2" stroke-miterlimit="10" stroke-linecap="round" stroke-linejoin="round"/>
<path d="M180.369 188.375C180.405 188.907 176.99 191.863 176.274 192.561" stroke="#1D1D1D" stroke-width="2" stroke-miterlimit="10" stroke-linecap="round" stroke-linejoin="round"/>
<path d="M176.201 188.32C176.164 188.265 176.146 188.32 176.183 188.357C176.642 188.944 177.284 189.44 177.853 189.899C179.01 190.835 180.552 191.643 181.47 192.836" stroke="#1D1D1D" stroke-width="2" stroke-miterlimit="10" stroke-linecap="round" stroke-linejoin="round"/>
<path d="M128.19 201.41C128.245 201.429 128.227 201.796 128.227 201.851C128.3 203.504 128.63 205.193 128.63 206.845" stroke="#1D1D1D" stroke-width="2" stroke-miterlimit="10" stroke-linecap="round" stroke-linejoin="round"/>
<path d="M126.225 204.532C127.455 204.458 128.943 203.779 130.209 203.577" stroke="#1D1D1D" stroke-width="2" stroke-miterlimit="10" stroke-linecap="round" stroke-linejoin="round"/>
<path d="M130.209 201.521C130.209 201.521 129.126 202.751 129.034 202.861C128.318 203.816 127.694 204.881 127.033 205.872" stroke="#1D1D1D" stroke-width="2" stroke-miterlimit="10" stroke-linecap="round" stroke-linejoin="round"/>
<path d="M126.409 202.384C126.354 202.365 126.629 202.622 126.666 202.641C127.033 202.916 127.382 203.191 127.768 203.43C128.759 204.091 129.75 204.734 130.705 205.468" stroke="#1D1D1D" stroke-width="2" stroke-miterlimit="10" stroke-linecap="round" stroke-linejoin="round"/>
<path d="M120.424 34.1151C120.387 34.519 119.763 32.9217 119.708 32.7564C119.102 31.1408 119.579 29.5435 121.323 28.9743C122.7 28.5337 123.93 30.2228 125.179 29.672C127.253 28.7356 125.142 25.6512 127.345 24.9718C128.924 24.4761 130.136 26.3672 131.623 25.8898C131.77 25.8348 131.899 25.743 132.027 25.6512C133.624 24.2742 132.376 21.612 134.579 20.5287C137.076 19.2986 136.672 22.2729 138.453 22.3464C140.73 22.4565 140.693 19.2986 142.419 18.399C143.906 17.6095 144.971 20.0881 146.495 19.4822C148.22 18.8029 147.156 16.0673 148.753 15.186C150.589 14.1762 151.727 16.5263 153.306 15.8286C154.536 15.2962 154.444 13.7907 155.509 13.0563C157.254 11.8812 158.227 14.0844 159.328 13.6621C160.907 13.0563 160.632 10.7796 162.67 10.3206C164.212 9.9718 164.561 12.3402 166.103 11.8629C167.774 11.3488 167.884 9.43937 170.124 9.51281C173.41 9.64132 171.023 12.7809 172.345 14.0477C173.961 15.6083 176.752 13.5703 177.394 16.8751C177.798 18.9498 175.595 19.9596 177.303 21.9975C178.276 23.1542 180.093 22.5667 180.846 23.8152C182.113 25.8898 179.194 28.4419 180.975 30.4064C182.15 31.7283 184.702 30.2962 185.271 32.3525C185.858 34.4456 183.857 36.3183 185.069 38.4113C185.84 39.7516 188.153 38.8336 188.778 40.541C189.347 42.0833 186.519 43.2583 187.437 44.8005C188.3 46.2326 190.999 45.0759 191.44 47.0037C191.789 48.5092 189.971 49.0417 190.099 50.4187C190.301 52.8789 194.836 53.7051 193.863 56.7345C193.771 57.0282 193.643 57.2853 193.496 57.5607C191.109 61.8752 189.071 58.5154 186.372 60.0209C184.83 60.8838 186.813 63.087 184.849 64.0968C183.453 64.8128 179.689 62.7382 179.102 64.5374C178.9 65.1433 179.469 65.6757 179.285 66.3C179.12 66.8691 178.569 67.2914 178.019 67.5301C176.293 68.2645 174.383 66.7223 172.694 67.4934C171.905 67.8606 172.584 70.2657 170.748 71.4224C169.151 72.4322 167.572 70.1739 166.066 70.8532C164.965 71.349 165.515 74.4518 164.23 75.3331C161.495 77.2058 160.503 74.1947 159.328 74.5069C157.914 74.8741 158.41 77.7198 157.088 78.6011C154.555 80.2719 153.692 76.8386 152.021 77.2058C151.176 77.3894 151.433 79.4273 150.791 80.0515C149.194 81.6489 148.404 77.9218 147.027 78.087C146.219 78.1788 143.998 80.3637 142.529 81.3C141.207 82.1446 140.748 81.2633 139.481 80.7676C135.02 79.0418 139.316 76.1409 137.957 74.4334C137.168 73.4603 133.037 74.4151 133.22 71.1286C133.276 69.9903 135.111 70.229 135.497 69.3294C135.809 68.6133 135.571 67.8055 135.075 67.1996C133.606 65.4187 130.87 67.3098 130.173 64.0601C129.769 62.169 132.578 61.6549 131.954 59.6537C131.329 57.6341 127.878 60.1678 126.85 58.1849C124.903 54.4395 129.622 54.1274 128.869 51.7222C128.171 49.519 124.555 51.3734 123.343 48.803C122.59 47.2057 126.299 45.6635 125.362 43.5521C124.096 40.6879 121.745 44.3415 120.13 41.8997C119.267 40.5961 122.48 38.6683 121.782 38.0992C121.635 37.9707 120.111 38.8336 119.818 38.8703C117.523 39.1273 116.55 37.1261 116.641 35.235C116.715 33.7846 118.624 34.0784 119.726 33.7662" stroke="#1D1D1D" stroke-width="2" stroke-miterlimit="10" stroke-linecap="round" stroke-linejoin="round"/>
<path fill-rule="evenodd" clip-rule="evenodd" d="M161.384 68.4848C172.896 63.1421 187.529 54.2375 187.529 54.2375C187.529 54.2375 180.075 36.4284 173.943 24.3476C171.886 21.4835 164.561 24.1089 161.44 25.0636C156.336 26.6242 149.138 32.0588 147.229 35.4553C139.279 49.519 146.66 65.841 161.384 68.4848Z" fill="#1D1D1D"/>
<path d="M161.384 68.4848C172.896 63.1421 187.529 54.2375 187.529 54.2375C187.529 54.2375 180.075 36.4284 173.943 24.3476C171.886 21.4835 164.561 24.1089 161.44 25.0636C156.336 26.6242 149.138 32.0588 147.229 35.4553C139.279 49.519 146.66 65.841 161.384 68.4848Z" stroke="#1D1D1D" stroke-width="2" stroke-miterlimit="10" stroke-linecap="round" stroke-linejoin="round"/>
<path d="M172.382 39.7148C172.878 40.0453 171.225 39.2925 170.638 39.366C165.13 40.0086 160.228 47.7932 165.093 52.1078C171.905 58.1665 182.829 47.9401 175.595 41.8446" stroke="#F7F2EE" stroke-width="2" stroke-miterlimit="10" stroke-linecap="round" stroke-linejoin="round"/>
<path d="M170.307 44.8923C169.83 44.5802 167.682 47.2791 169.518 48.7112C171.097 49.9413 173.777 47.7381 172.052 46.251" stroke="#F7F2EE" stroke-width="2" stroke-miterlimit="10" stroke-linecap="round" stroke-linejoin="round"/>
<path d="M150.185 53.5215C149.23 52.7871 149.083 49.3171 148.937 48.2522C147.982 41.1653 153.123 34.4272 159.365 31.4162" stroke="#F7F2EE" stroke-width="2" stroke-miterlimit="10" stroke-linecap="round" stroke-linejoin="round"/>
<path d="M156.115 50.1433C156.06 50.1983 155.785 49.2253 155.785 49.1885C155.601 48.1604 155.509 47.0955 155.619 46.049C155.895 43.3501 157.768 40.5961 160.063 39.2191" stroke="#F7F2EE" stroke-width="2" stroke-miterlimit="10" stroke-linecap="round" stroke-linejoin="round"/>
<path d="M182.7 47.7197C182.517 47.4811 182.737 48.3807 182.719 48.6928C182.664 49.3171 182.572 49.9597 182.425 50.5655C181.984 52.3281 181.25 54.3844 180.075 55.6696" stroke="#F7F2EE" stroke-width="2" stroke-miterlimit="10" stroke-linecap="round" stroke-linejoin="round"/>
<path d="M136.066 34.0784C136.085 34.0233 135.993 33.9866 135.956 33.9682C133.845 33.0318 132.376 39.0172 135.626 38.1359C138.508 37.3464 136.801 28.3501 136.507 26.2938C136.488 26.1469 136.617 26.5692 136.672 26.716C136.764 26.9364 136.856 27.1567 136.966 27.3586C137.37 28.1481 137.81 28.9192 138.361 29.6169C139.132 30.5716 145.687 36.7222 140.179 36.2999" stroke="#1D1D1D" stroke-width="2" stroke-miterlimit="10" stroke-linecap="round" stroke-linejoin="round"/>
<path d="M132.578 46.1959C132.89 46.3611 133.588 47.7932 133.936 48.142C134.818 49.0233 143.098 55.5778 138.839 57.12C136.066 58.1298 134.965 53.6133 138.269 52.8422" stroke="#1D1D1D" stroke-width="2" stroke-miterlimit="10" stroke-linecap="round" stroke-linejoin="round"/>
<path d="M184.334 23.6866C184.316 23.6866 184.922 22.4565 184.977 22.3831C185.491 21.5753 186.042 20.8041 186.684 20.1065C188.667 17.9216 191.385 16.3978 194.102 15.4063C206.072 11.0734 208.551 14.8372 215.895 4.1517" stroke="#1D1D1D" stroke-width="2" stroke-miterlimit="10" stroke-linecap="round" stroke-linejoin="round"/>
<path d="M187.713 29.5985C187.694 29.6353 187.731 29.4884 187.731 29.4884C188.08 28.4419 189.218 27.377 189.989 26.6609C191.752 25.0269 194.01 23.7234 196.268 22.8972C202.419 20.6573 210.571 22.4015 214.922 16.5814" stroke="#1D1D1D" stroke-width="2" stroke-miterlimit="10" stroke-linecap="round" stroke-linejoin="round"/>
<path d="M191.825 36.814C191.476 36.6487 193.129 34.5373 193.202 34.4639C193.918 33.6744 194.708 32.9767 195.571 32.3341C195.699 32.2423 195.846 32.1505 195.975 32.0404C201.317 27.634 203.631 29.1395 208.514 29.213C210.148 29.2313 212.884 28.3684 213.949 26.6242" stroke="#1D1D1D" stroke-width="2" stroke-miterlimit="10" stroke-linecap="round" stroke-linejoin="round"/>
</svg>
